<?xml version="1.0" encoding="UTF-8" standalone="no"?>
<svg 
    role="img" 
    xmlns="http://www.w3.org/2000/svg" 
    width="100%" height="1000px"
    viewBox="0 0 1000 1000"
    style="height: auto;">
    
    <path 
        id="path" 
        style=""
        d="M 503 25C 631 25 647 26 697 28C 748 30 782 38 812 50C 843 62 870 78 896 105C 922 131 938 157 950 188C 962 218 970 253 972 303C 975 353 975 369 975 498C 975 626 975 642 972 693C 970 743 962 777 950 807C 938 838 922 865 896 891C 870 917 843 934 812 946C 782 957 748 965 698 968C 647 970 631 970 503 970C 374 970 358 970 308 968C 257 965 223 957 193 946C 162 934 136 917 109 891C 83 865 67 838 55 807C 43 777 35 743 33 693C 31 642 30 626 30 498C 30 369 31 353 33 303C 35 253 43 218 55 188C 67 157 83 131 109 105C 136 78 162 62 193 50C 223 38 258 30 308 28C 358 26 374 25 503 25C 503 25 503 25 503 25M 460 110C 372 110 355 111 312 113C 266 115 241 123 224 129C 202 138 186 148 170 165C 153 181 143 197 134 219C 128 236 120 261 118 307C 116 356 115 371 115 498C 115 624 116 639 118 689C 120 735 128 760 134 776C 143 798 153 814 170 831C 186 847 202 857 224 866C 241 872 266 880 312 882C 362 885 377 885 503 885C 629 885 644 885 694 882C 740 880 765 873 781 866C 804 857 819 847 836 831C 852 814 863 798 871 776C 878 760 885 735 887 689C 890 639 890 624 890 498C 890 372 890 357 887 307C 885 261 878 236 871 219C 863 197 852 181 836 165C 819 148 804 138 781 129C 765 123 740 115 694 113C 644 111 629 110 503 110C 487 110 473 110 460 110C 460 110 460 110 460 110M 755 189C 786 189 812 214 812 246C 812 277 786 302 755 302C 724 302 698 277 698 246C 698 214 724 189 755 189C 755 189 755 189 755 189M 503 255C 637 255 745 364 745 498C 745 632 637 740 503 740C 369 740 260 632 260 498C 260 364 369 255 503 255C 503 255 503 255 503 255M 345 498C 345 585 416 655 503 655C 590 655 660 585 660 498C 660 411 590 340 503 340C 416 340 345 411 345 498C 345 498 345 498 345 498"
        transform="">
    </path>    
</svg>
