<?xml version="1.0" encoding="UTF-8" standalone="no"?>
<svg 
    role="img" 
    xmlns="http://www.w3.org/2000/svg" 
    width="100%" height="1000px"
    viewBox="0 0 1000 1000"
    style="height: auto;">
    
    <path 
        id="path" 
        style=""
        d="M 500 0C 224 0 0 224 0 500C 0 776 224 1000 500 1000C 776 1000 1000 776 1000 500C 1000 224 776 0 500 0C 500 0 500 0 500 0M 789 567C 790 574 791 581 791 588C 791 700 661 790 501 790C 341 790 211 700 211 588C 211 581 212 573 213 566C 188 555 170 530 170 500C 170 460 203 427 243 427C 262 427 280 436 293 448C 343 411 412 388 489 386C 489 386 526 213 526 213C 527 210 528 207 531 205C 534 203 538 203 541 203C 541 203 661 229 661 229C 670 211 687 200 707 200C 736 200 759 223 759 251C 759 280 736 303 707 303C 679 303 657 281 656 254C 656 254 548 231 548 231C 548 231 515 386 515 386C 591 389 659 412 708 448C 721 435 739 427 758 427C 799 427 831 460 831 500C 831 530 813 555 789 567C 789 567 789 567 789 567M 386 603C 415 603 438 580 438 552C 438 523 415 500 386 500C 358 500 334 523 334 552C 334 580 358 603 386 603C 386 603 386 603 386 603M 624 669C 619 664 610 664 605 669C 582 691 535 699 501 699C 467 699 419 691 397 669C 392 664 383 664 378 669C 373 674 373 683 378 688C 413 723 481 726 501 726C 520 726 588 724 623 688C 628 683 628 675 624 669C 624 669 624 669 624 669M 666 552C 666 523 642 500 614 500C 585 500 562 523 562 552C 562 580 585 603 614 603C 642 603 666 580 666 552C 666 552 666 552 666 552"
        transform="">
    </path>    
</svg>

