<?xml version="1.0" encoding="UTF-8" standalone="no"?>
<svg 
    role="img" 
    xmlns="http://www.w3.org/2000/svg" 
    width="100%" height="1000px"
    viewBox="0 0 1000 1000"
    style="height: auto;">
    
    <path 
        id="path" 
        style=""
        d="M 953.125 419.292969 C 851.375 636.667969 605.75 932.582031 450.5 932.582031 C 297.5 932.582031 275.375 606.292969 191.832031 389.125 C 150.707031 282.25 124.167969 306.792969 47.082031 360.75 L 0.0820312 300.125 C 112.5 201.292969 225 86.5 294.125 80.125 C 371.957031 72.667969 419.875 125.875 437.792969 239.792969 C 461.457031 389.5 494.542969 621.875 552.292969 621.875 C 597.292969 621.875 708.167969 437.542969 713.875 371.625 C 724 275.125 642.917969 272.207031 572.542969 302.332031 C 683.917969 -62.417969 1147.25 4.75 953.125 419.292969 Z M 953.125 419.292969"
        transform="">
    </path>    
</svg>