<?xml version="1.0" encoding="UTF-8" standalone="no"?>
<svg 
    role="img" 
    xmlns="http://www.w3.org/2000/svg" 
    width="100%" height="1000px"
    viewBox="0 0 1000 1000"
    style="height: auto;">
    
    <path 
        id="path" 
        style=""
        d="M 500 0C 776 0 1000 224 1000 500C 1000 776 776 1000 500 1000C 448 1000 399 992 352 978C 372 944 403 890 414 847C 414 847 445 728 445 728C 462 759 509 785 560 785C 711 785 819 646 819 474C 819 309 685 185 511 185C 295 185 181 330 181 488C 181 561 220 653 282 682C 292 686 297 684 299 675C 301 668 309 634 313 618C 314 613 313 609 309 604C 289 579 272 533 272 490C 272 380 356 273 498 273C 621 273 707 357 707 476C 707 612 638 705 550 705C 501 705 464 665 476 615C 490 555 517 491 517 448C 517 410 496 378 454 378C 404 378 363 430 363 499C 363 544 378 574 378 574C 378 574 329 783 320 822C 310 865 313 926 318 966C 132 893 0 712 0 500C 0 224 224 0 500 0C 500 0 500 0 500 0"
        transform="">
    </path>    
</svg>