<?xml version="1.0" encoding="UTF-8" standalone="no"?>
<svg 
    role="img" 
    xmlns="http://www.w3.org/2000/svg" 
    width="100%" height="1000px"
    viewBox="0 0 1000 1000"
    style="height: auto;">
    
    <path 
        id="path" 
        style=""
        d="M 690 1000C 690 1000 534 1000 534 1000C 534 1000 534 613 534 613C 534 613 404 613 404 613C 404 613 404 462 404 462C 404 462 534 462 534 462C 534 462 534 350 534 350C 534 221 613 151 729 151C 784 151 831 155 845 157C 845 157 845 292 845 292C 845 292 765 292 765 292C 702 292 690 322 690 365C 690 365 690 462 690 462C 690 462 840 462 840 462C 840 462 820 613 820 613C 820 613 690 613 690 613C 690 613 690 1000 690 1000"
        transform="">
    </path>    
</svg>